<?xml version="1.0" standalone="no"?>
<!DOCTYPE svg PUBLIC "-//W3C//DTD SVG 20010904//EN"
 "http://www.w3.org/TR/2001/REC-SVG-20010904/DTD/svg10.dtd">
<svg version="1.0" xmlns="http://www.w3.org/2000/svg"
 width="200.000000pt" height="200.000000pt" viewBox="0 0 200.000000 200.000000"
 preserveAspectRatio="xMidYMid meet">

<g transform="translate(0.000000,200.000000) scale(0.100000,-0.100000)"
fill="#000000" stroke="none">
<path d="M758 1666 c-211 -87 -361 -293 -375 -513 -6 -81 -6 -83 -32 -84 l-26
-1 27 -11 c20 -8 28 -18 28 -36 0 -66 53 -203 109 -285 27 -39 31 -53 31 -111
0 -73 14 -114 54 -162 47 -55 123 -36 85 21 -25 39 -59 109 -55 114 3 2 26
-11 53 -29 49 -34 147 -78 173 -79 8 0 -11 15 -42 33 -67 37 -141 97 -164 132
-15 23 -14 28 6 70 14 30 42 61 76 86 54 42 73 77 88 170 7 40 40 89 60 89 7
0 30 -13 50 -29 20 -16 69 -42 109 -57 40 -15 87 -38 105 -51 l33 -25 -7 -182
c-5 -129 -4 -188 5 -203 8 -16 8 -23 -2 -26 -7 -4 -6 -6 4 -6 10 -1 40 -17 69
-36 54 -36 88 -43 108 -23 19 19 14 44 -14 78 -15 17 -25 32 -23 34 2 1 30 22
63 46 32 24 79 69 104 100 53 64 115 191 132 271 18 82 8 259 -18 332 l-20 57
62 0 c48 0 67 4 79 18 30 33 21 75 -26 128 -23 27 -58 68 -76 92 -28 36 -38
42 -70 42 -24 0 -54 -11 -85 -30 l-48 -31 -34 26 c-56 43 -215 111 -200 86 4
-6 12 -11 17 -11 26 0 181 -123 168 -133 -2 -2 -29 -27 -60 -54 -47 -42 -74
-56 -152 -82 -60 -19 -116 -31 -151 -31 -53 0 -285 -42 -307 -56 -20 -12 -69
-97 -69 -119 0 -12 -10 -31 -22 -42 -21 -19 -100 -63 -113 -63 -9 0 -5 64 10
135 38 176 159 346 311 436 59 35 49 37 -28 5z m776 -125 c-3 -31 -13 -63 -21
-71 -13 -13 -17 -12 -34 9 -15 18 -19 36 -17 70 3 39 7 46 28 51 45 12 52 3
44 -59z m95 -60 c29 -35 50 -68 48 -75 -2 -7 -40 -13 -98 -16 -76 -4 -100 -9
-125 -27 -49 -35 -52 -43 -93 -199 -22 -82 -44 -162 -50 -179 -25 -75 -54
-240 -58 -340 -5 -108 -5 -111 21 -142 68 -81 -10 -61 -86 22 -17 18 -18 33
-13 150 3 72 8 154 11 183 6 50 5 53 -32 90 -25 25 -65 48 -111 66 -40 15 -87
38 -105 51 -61 45 -74 49 -108 35 -38 -16 -54 -46 -76 -141 -13 -58 -23 -78
-47 -99 -120 -99 -161 -235 -102 -339 29 -51 29 -51 10 -51 -8 0 -26 19 -40
43 -22 39 -25 55 -26 155 -1 103 1 114 24 144 68 91 88 182 67 306 -11 70 -11
73 14 116 14 25 34 47 44 50 60 17 195 38 238 37 55 -1 164 24 255 58 36 14
75 39 105 69 27 26 70 62 96 80 l46 32 7 -41 c7 -43 35 -79 59 -79 25 0 46 42
46 89 0 52 -4 54 79 -48z m-133 -213 c28 -94 26 -260 -5 -358 -32 -105 -84
-199 -146 -267 l-54 -58 -1 77 c0 76 8 115 110 503 30 115 51 165 69 165 5 0
17 -28 27 -62z m-877 -258 c0 -30 -4 -72 -10 -93 -10 -36 -62 -107 -79 -107
-13 0 -70 193 -70 235 0 2 21 11 48 19 26 9 58 25 72 36 l25 19 6 -27 c4 -15
7 -52 8 -82z"/>
</g>
</svg>
